<svg width="390" height="157" viewBox="0 0 390 157" fill="none" xmlns="http://www.w3.org/2000/svg"><path d="M84.3277 78.7466C84.3526 78.698 84.3778 78.6498 84.4036 78.6016C85.9849 75.7152 88.0555 72.4293 89.7705 69.533L106.625 41.0456C107.317 39.8741 108.921 36.9871 109.644 36.0508C110.318 35.1592 111.259 34.5065 112.329 34.1876C114.336 33.5904 117.268 34.4429 118.241 36.4048C119.194 38.3272 119.936 40.9201 120.609 43.017C121.665 46.303 122.89 49.6406 123.845 52.9484C123.686 53.6418 126.315 61.3932 126.802 62.4542C125.175 63.2372 123.865 63.5569 122.182 64.154C120.684 64.6855 119.382 65.3216 117.813 65.75C117.399 64.5362 115.494 58.655 114.915 58.0517C114.343 56.9135 113.199 53.3979 112.723 52.031L100.42 74.0381C98.6677 77.1698 95.8778 81.7943 94.3519 84.9159C91.9169 89.2012 89.3694 93.6472 87.031 97.9758L78.0714 113.98C77.2553 115.448 74.5506 120.566 73.751 121.56C72.9342 122.592 71.8211 123.35 70.5616 123.729C68.9327 124.219 67.1759 124.039 65.6801 123.228C64.076 122.349 63.0941 120.997 62.5609 119.255C60.0502 111.052 56.9168 102.888 54.5141 94.6692C54.3249 94.325 53.7053 92.3817 53.5468 91.9021L48.0818 75.3182C46.8688 71.6289 44.7475 67.5941 46.9743 63.9754C47.9576 62.3711 49.541 61.2278 51.3714 60.8003C54.4638 60.0787 56.3575 61.4847 58.8642 63.0286C60.7899 64.2146 62.7233 65.4069 64.648 66.5956L84.3277 78.7466ZM70.6411 101.848C72.7291 98.3736 74.7892 94.8822 76.8214 91.3745C72.9263 88.9484 69.1095 86.3736 65.2313 83.9326C65.607 85.1658 67.399 90.5138 67.4209 91.332C68.5591 94.6665 69.6154 98.4488 70.6411 101.848Z" fill="#27272A"></path><path d="M54.5141 94.6692C54.3249 94.325 53.7053 92.3817 53.5468 91.9021L48.0818 75.3182C46.8688 71.6289 44.7475 67.5941 46.9743 63.9754C47.9576 62.3711 49.541 61.2278 51.3714 60.8003C54.4638 60.0787 56.3575 61.4847 58.8642 63.0286C60.7899 64.2146 62.7233 65.4069 64.648 66.5956L84.3277 78.7466C81.7637 82.8916 79.3905 87.2644 76.8214 91.3745C72.9263 88.9484 69.1095 86.3736 65.2313 83.9326C65.607 85.1658 67.399 90.5138 67.4209 91.332C66.8015 90.9608 66.0568 86.7493 65.522 85.9171C65.535 85.9374 64.7538 86.01 64.636 85.9866C61.4186 85.3487 55.2183 85.6038 52.3158 87.1173C52.5559 88.2767 54.7335 94.1802 54.5141 94.6692Z" fill="#27272A"></path><path d="M264.145 58.1206C264.33 58.0914 264.591 58.0813 264.782 58.0782C270.899 57.9778 274.238 61.5639 274.458 67.4881C274.634 65.7378 274.492 60.6148 274.492 58.6157H281.401V84.9184H274.492V81.9232C274.484 80.1484 274.513 78.3521 274.528 76.5756L274.386 76.5172C274.463 76.3898 274.429 76.4325 274.547 76.3427L274.561 76.426C274.345 76.5734 274.187 78.515 274.042 79.0752C273.747 80.2331 273.219 81.3185 272.49 82.2651C269.433 86.1636 262.618 86.4477 258.915 83.435C253.368 78.9203 253.286 66.93 257.512 61.5015C259.179 59.3613 261.524 58.4006 264.145 58.1206ZM268.839 79.8836C278.096 78.6998 276.004 62.1236 267.56 63.612C260.516 64.5155 259.879 74.7221 264.41 78.748C265.352 79.5854 267.596 80.1132 268.839 79.8836Z" fill="#27272A"></path><path d="M166.16 58.1201C168.195 57.7693 170.937 58.5487 172.528 59.8885C174.911 61.8961 175.511 64.3594 175.815 67.3147C176.168 62.1917 178.427 57.9504 184.027 58.0578C193.66 58.2426 193.108 67.185 193.104 73.8843L193.093 84.9184H186.116L186.131 73.5991C186.133 71.576 186.234 69.5172 185.984 67.4801C185.516 63.6541 180.842 62.4876 178.05 64.5869C175.365 66.6052 175.774 70.7997 175.78 73.8428L175.796 81.2356V84.9184H168.819L168.827 73.8355C168.83 69.9778 169.782 63.4902 164.01 63.5705C157.777 63.6573 158.499 70.2363 158.502 74.6463L158.5 84.9184H151.521V58.6157H158.5C158.501 59.8835 158.414 65.5741 158.569 66.4644C158.609 66.4068 158.755 65.0594 158.813 64.8051C159.719 60.81 161.999 58.5947 166.16 58.1201Z" fill="#27272A"></path><path d="M209.607 57.869C217.248 57.089 224.08 62.6402 224.896 70.289C225.71 77.9377 220.2 84.8077 212.568 85.6595C204.883 86.5172 197.968 80.9533 197.147 73.2535C196.327 65.5536 201.916 58.6541 209.607 57.869ZM211.701 79.8829C213.423 79.6679 214.911 79.0779 215.979 77.6368C218.476 74.2665 218.342 67.4861 214.881 64.7681C213.755 63.8842 211.753 63.3726 210.362 63.6076C208.632 63.837 207.126 64.4542 206.066 65.9251C203.633 69.3005 203.729 76.0846 207.225 78.7612C208.341 79.6161 210.321 80.1161 211.701 79.8829Z" fill="#27272A"></path><path d="M123.845 52.9484C125.607 57.9454 127.276 63.2321 128.946 68.2822L143.042 110.931C143.781 113.166 144.54 115.397 145.24 117.645C145.712 119.163 145.938 120.069 145.226 121.544C144.729 122.573 143.842 123.36 142.763 123.731C141.643 124.115 140.416 124.036 139.355 123.511C137.873 122.778 137.499 121.81 136.961 120.322C135.285 115.687 133.649 111.036 132 106.391L117.362 65.1092C116.761 63.4125 115.275 59.5826 114.915 58.0517C115.494 58.655 117.399 64.5362 117.813 65.75C119.382 65.3216 120.684 64.6855 122.182 64.154C123.865 63.5569 125.175 63.2372 126.802 62.4542C126.315 61.3932 123.686 53.6418 123.845 52.9484Z" fill="#27272A"></path><path d="M94.3519 84.9159L110.76 95.0407C112.309 95.9954 117.468 99.0473 118.599 100.102C119.697 101.128 120.466 102.458 120.808 103.923C121.264 105.871 120.917 108.119 119.849 109.815C118.731 111.576 116.956 112.815 114.919 113.257C111.01 114.114 108.682 111.843 105.578 109.94C104.541 109.304 103.524 108.615 102.501 107.956L87.031 97.9758C89.3694 93.6472 91.9169 89.2012 94.3519 84.9159Z" fill="#27272A"></path><path d="M317.236 58.122C320.628 57.6411 325.251 58.9527 327.667 61.4807C330.675 64.6314 331.268 68.4225 331.238 72.6018H312.097C312.429 75.5883 313.34 78.9387 316.522 79.9002C320.354 81.0585 323.344 79.1323 324.542 75.5293H331.308C329.89 81.6696 326.509 84.6944 320.162 85.3787C312.293 86.2226 306.118 81.9328 305.479 73.7878C304.802 65.1772 308.245 58.9422 317.236 58.122ZM312.205 70.1708H324.465C323.95 66.4938 322.209 62.8869 317.873 63.3308C313.971 63.8634 312.697 66.5575 312.205 70.1708Z" fill="#27272A"></path><path d="M225.997 58.6157H233.453C235.269 67.1297 237.507 76.099 239.488 84.6239C239.977 82.0806 240.687 79.3578 241.249 76.8144C242.59 70.7509 244.088 64.687 245.388 58.6157C247.807 58.6154 250.297 58.5875 252.709 58.6272L252.793 58.8233C251.928 61.7614 251.123 65.1796 250.343 68.1694L245.994 84.9184H232.902C232.739 84.1353 232.501 83.2858 232.288 82.5116C230.113 74.584 228.235 66.5213 225.997 58.6157Z" fill="#27272A"></path><path d="M288.537 52.1596H295.461V58.6157H303.629V63.4254H295.464C295.458 66.1169 295.125 75.4266 295.726 77.4568C295.976 78.2972 296.478 79.0458 297.269 79.4595C299.045 80.3884 301.189 79.7304 302.971 79.1936L303.116 79.3145L303.133 79.8948V84.239C298.152 86.5634 290.162 85.8981 288.814 79.4734C288.375 77.3828 288.53 74.9047 288.53 72.7504L288.537 63.4246H284.738V58.6157H288.537V52.1596Z" fill="#27272A"></path><path d="M338.237 45.4472L339.569 45.448L341.593 48.2447L343.606 45.4537L344.961 45.467C344.96 46.8928 345.083 50.1522 344.897 51.3667L344.718 51.4923C344.216 51.5099 344.093 51.6098 343.789 51.3519C343.605 50.7212 343.677 49.4878 343.688 48.782L343.682 47.2125L341.577 50.0642L339.483 47.2177C339.457 48.4041 339.873 50.7201 339.02 51.4846C338.557 51.5316 338.611 51.6057 338.328 51.3887C338.11 50.108 338.228 46.8448 338.237 45.4472Z" fill="#27272A"></path><path d="M331.522 45.4443C333.072 45.4571 335.448 45.3057 336.904 45.5032C337.026 45.8543 337.013 45.912 336.959 46.2709C336.495 46.4644 335.494 46.395 334.948 46.3859V49.332C334.937 50.1388 335.261 50.951 334.604 51.4667C334.094 51.4987 334.081 51.5869 333.733 51.3611C333.546 50.5398 333.652 47.383 333.66 46.3859C333.016 46.3742 332.496 46.5241 331.868 46.3401C331.496 46.0064 331.609 46.0669 331.522 45.4443Z" fill="#27272A"></path></svg>